<?xml version="1.0" encoding="utf-8"?>
<!-- Generator: Adobe Illustrator 17.0.0, SVG Export Plug-In . SVG Version: 6.00 Build 0)  -->
<!DOCTYPE svg PUBLIC "-//W3C//DTD SVG 1.1//EN" "http://www.w3.org/Graphics/SVG/1.1/DTD/svg11.dtd">
<svg version="1.1" xmlns="http://www.w3.org/2000/svg" xmlns:xlink="http://www.w3.org/1999/xlink" x="0px" y="0px"
	 width="850.39px" height="850.39px" viewBox="0 0 850.39 850.39" enable-background="new 0 0 850.39 850.39" xml:space="preserve">
<g id="Layer_1">
	<g display="none">
		<path display="inline" d="M424.638,809.524c-211.661,0-383.858-172.197-383.858-383.858c0-111.549,48.555-217.411,133.252-290.563
			c0.137-0.119,0.274-0.237,0.411-0.347l1.597-1.378c0.11-0.082,0.21-0.173,0.31-0.265C245.642,74.227,333.798,41.79,424.638,41.79
			c187.019,0,346.018,133.608,378.154,317.706c4.527,22.845,6.818,45.835,6.818,68.333c0,81.749-28.102,166.283-75.169,226.127
			l-11.418,14.512l-0.776-0.602C649.57,756.908,539.71,809.524,424.638,809.524z M361.435,753.951
			c73.9,14.347,151.862,1.88,217.475-34.646c-12.677-5.148-31.36-8.278-52.233-8.278c-4.883,0-9.392,0.183-13.316,0.502
			c-15.041,1.25-25.939,8.388-37.466,15.936c-9.592,6.27-19.513,12.759-31.606,15.415
			C420.467,748.082,383.695,752.6,361.435,753.951z M99.849,305.164c-14.192,38.141-21.685,78.893-21.685,120.502
			c0,146.714,91.652,272.419,220.715,322.863l7.557-3.988c6.279-3.304,10.249-7.055,14.448-11.025
			c7.511-7.101,16.857-15.945,34.691-16.684c19.531-0.885,57.545-5.412,80.727-10.478c5.367-1.177,11.737-5.348,19.121-10.176
			c13.526-8.844,30.356-19.86,54.871-21.904c4.846-0.392,10.396-0.63,16.383-0.63c22.762,0,76.328,3.477,97.904,34.646
			c25.354-17.916,48.427-39.282,68.406-63.687c-34.618-30.63-46.976-59.142-35.777-83.064
			c10.304-21.968,14.375-79.413,11.482-103.855c-3.696-32.108-17.25-66.845-32.711-67.092
			c-45.388-0.648-74.265-19.413-96.498-62.729c-29.827-58.275,6.261-93.934,27.819-115.245
			c13.727-13.553,17.87-18.582,17.195-22.498c-1.807,0.73-3.815,1.57-5.54,2.282c-10.386,4.326-23.31,9.702-36.927,9.702
			c-20.033,0.009-45.059-11.162-50.499-64.39c-1.05-10.925,4.983-19.577,28.567-45.269c-44.922-12.796-94.445-16.657-142.315-10.067
			c-0.374,3.003-0.356,6.736-0.347,10.396c0.046,12.038,0.1,28.531-13.353,40.797c-13.353,12.093-23.502,18.372-31.652,23.42
			c-9.738,6.033-14.63,9.063-21.202,19.641c-7.749,12.413-21.366,25.747-34.536,38.634c-9.821,9.62-26.267,25.71-28.229,31.661
			c0.201,2.975,9.729,13.061,15.443,14.84c8.99-2.528,20.389-3.085,28.631-3.085c8.296,0,29.48,0.657,46.803,6.745
			c2.236,0.739,6.206,1.396,11.299,2.364c29.535,5.604,90.995,17.277,116.559,62.839c14.493,25.829,14.813,57.581,0.949,94.354
			c-8.652,23.054-28.877,34.025-46.711,43.709c-21.549,11.692-40.167,21.795-47.788,50.599
			c-2.838,10.505-10.824,48.199-11.308,58.658c-0.228,4.427,0.821,14.904,1.835,25.044c4.107,41.153,5.695,67.146-6.891,81.065
			c-4.919,5.421-11.6,8.415-18.829,8.415c-31.807,0-91.177-79.294-91.177-99.437c-0.036-2.756-2.108-12.522-3.76-20.371
			c-4.207-19.887-9.967-47.122-9.967-72.659c0-6.608-6.088-11.363-19.97-20.636c-18.272-12.212-43.307-28.941-43.307-65.412
			c0-28.458,11.482-49.157,19.869-64.262c2.501-4.509,7.429-13.389,7.876-16.666C187.13,323.427,134.833,310.239,99.849,305.164z
			 M284.605,590.927c4.427,11.573,28.987,42.34,45.178,56.879c0.027-12.732-1.78-30.758-2.811-41.098
			c-1.305-13.088-2.346-23.429-1.971-30.584c0.721-15.452,10.094-57.472,12.531-66.498c11.728-44.302,43.143-61.351,66.069-73.791
			c15.999-8.68,25.984-14.484,29.562-24.013c9.793-25.984,10.268-47.14,1.433-62.902c-17.049-30.374-66.955-39.848-90.931-44.402
			c-7.676-1.46-12.75-2.428-16.739-3.833c-8.105-2.838-21.293-4.618-34.39-4.618c-10.587,0-16.876,1.141-18.92,1.807
			c-2.939,0.967-6.078,1.451-9.319,1.451c-22.653,0-53.009-26.769-53.009-54.15c0-18.199,17.323-35.148,39.246-56.623
			c11.6-11.354,23.593-23.1,28.96-31.688c11.171-17.989,21.904-24.624,33.258-31.661c7.219-4.463,15.406-9.528,26.185-19.294
			c1.159-1.059,1.132-9.127,1.113-12.997c0-0.192,0-0.383,0-0.575c-51.293,11.253-99.127,34.956-139.586,69.355
			c-0.064,0.046-0.119,0.1-0.183,0.155l-1.442,1.232c-0.009,0.009-0.018,0.018-0.036,0.027
			c-34.363,29.617-62.227,66.27-81.503,107.003c37.676,6.234,105.872,21.275,115.875,49.413c6.489,17.962-2.455,34.089-10.35,48.309
			c-7.457,13.444-15.169,27.344-15.169,46.127c0,15.726,9.647,22.936,26.696,34.326c16.301,10.888,36.581,24.451,36.581,51.722
			c0,21.622,5.294,46.647,9.154,64.929C282.551,576.588,284.267,584.702,284.605,590.927z M589.406,150.948
			c7.274,0,13.836,2.765,18.464,7.776c32.044,34.691,3.039,63.359-14.284,80.481c-23.675,23.392-37.338,39.364-20.837,71.609
			c18.035,35.129,36.334,42.002,63.797,42.394c55.062,0.885,67.375,83.575,69.282,100.14c3.076,26.012-0.183,92.93-14.767,124.043
			c-2.245,4.81,4.299,18.601,24.131,36.863c36.654-56.176,55.93-120.968,55.93-188.589c0-19.906-1.707-39.866-5.084-59.325
			c-23.356-117.244-106.73-219.474-209.453-258.318c-0.885,0.958-1.798,1.953-2.747,2.975c-6.635,7.155-19.504,21.037-24.533,27.91
			c1.552,11.281,5.047,25.82,12.723,25.811c6.142,0,14.868-3.623,22.562-6.827C573.178,154.315,581.274,150.948,589.406,150.948z"/>
	</g>
	<g display="none">
		<path display="inline" d="M368.685,812.784c-22.651,0-44.453-22.81-54.283-45.344l-47.444-108.986
			c-1.655-1.966-6.679-2.789-9.998-3.327c-11.829-1.932-28.843-4.705-45.495-21.626c-7.755,2.563-15.812,5.293-18.702,6.469
			c-7.982,3.243-16.627,4.89-25.701,4.89c-44.151,0-87.621-37.581-102.584-72.388c-11.838-27.524-11.745-64.18,0.244-93.393
			c8.729-21.281,22.852-36.396,40.857-43.705c295.099-119.95,319.716-233.196,336.007-308.138
			c7.578-34.816,14.728-67.7,51.023-82.454c6.284-2.562,13.115-3.856,20.307-3.856c73.674,0,170.436,132.637,224.08,257.435
			c52.619,122.462,71.893,250.596,46.864,311.591c-7.511,18.316-18.752,30.624-33.405,36.581
			c-8.713,3.545-17.643,5.343-26.532,5.343c-0.008,0-0.008,0-0.008,0c-24.625,0-46.007-13.224-70.767-28.524
			c-38.278-23.659-85.907-53.098-171.083-53.098c-13.594,0-27.902,0.773-42.521,2.294c-11.737,1.218-21.676,5.923-25.314,11.981
			c-1.159,1.941-2.243,4.797-0.26,9.687c5.125,12.628,19.702,45.705,29.859,68.751l8.444,19.198
			c1.664,3.831,8.099,7.746,14.325,11.544c9.401,5.73,20.063,12.233,25.272,24.205c4.898,11.275,5.049,24.037,0.42,35.026
			c-4.89,11.611-14.812,20.76-27.952,25.768l-83.983,31.96C376.649,812.07,372.726,812.784,368.685,812.784z M368.685,778.371
			v17.207V778.371L368.685,778.371L368.685,778.371z M223.487,593.434l7.351,9.864c10.771,14.459,20.45,16.039,31.657,17.862
			c11.04,1.798,27.734,4.52,36.018,23.567l47.436,108.978c6.461,14.804,18.232,24.356,22.533,24.659l83.621-31.817
			c2.999-1.151,6.923-3.293,8.469-6.957c1.008-2.411,0.916-5.234-0.269-7.956c-0.907-2.008-7.612-6.1-11.619-8.544
			c-9.78-5.957-21.953-13.384-27.961-27.179l-8.385-19.072c-10.292-23.357-25.054-56.871-30.254-69.675
			c-5.612-13.838-4.671-28.171,2.647-40.353c9.427-15.694,28.112-26.079,51.25-28.49c15.795-1.647,31.305-2.479,46.083-2.479
			c94.955,0,149.406,33.657,189.171,58.24c21.139,13.065,37.833,23.382,52.678,23.382c0,0,0,0,0.008,0
			c4.486,0,8.923-0.916,13.577-2.806c5.764-2.344,10.653-8.326,14.526-17.769c18.4-44.84,8.284-157.111-46.654-284.933
			C645.443,172.512,555.839,75.339,512.915,75.339c-2.764,0-5.167,0.437-7.351,1.319c-18.694,7.603-22.81,23.239-30.347,57.896
			c-16.744,77.009-44.772,205.916-356.683,332.696c-11.67,4.747-18.391,16.156-21.979,24.894
			c-8.385,20.433-8.57,47.872-0.462,66.734c10.468,24.348,43.033,51.569,70.969,51.569c4.613,0,8.906-0.798,12.745-2.352
			c6.965-2.831,29.431-10.074,31.968-10.897L223.487,593.434z M691.249,551.485c-25.885,0-94.216-62.323-142.391-159.984
			c-47.553-96.426-53.191-197.38-42.882-224.458c2.68-7.057,6.973-11.821,12.754-14.165l3.109-1.26l4.646-0.235
			c37.967,0,112.632,147.482,127.218,177.048c33.884,68.709,79.009,201.009,48.293,220.072l-4.167,2.588L691.249,551.485z
			 M535.894,198.801c-0.512,33.968,7.856,104.525,43.831,177.476c34.119,69.187,74.817,111.918,97.627,130.452
			c-4.075-31.044-19.584-92.258-54.518-163.076C586.505,269.988,554.294,221.284,535.894,198.801z"/>
	</g>
	<g display="none">
		<path display="inline" d="M397.48,41.749c-5.327-0.056-2.525,0.191-7.874,0.393c-6.986,0.247-13.895,0.982-20.903,1.58v766.721
			c46.712,4.166,86.459,0.351,134.115-13.675c203.74-59.98,320.891-274.68,260.929-478.411
			C714.733,151.815,562.679,43.082,397.48,41.749z M399.751,82.168h34.09c44.828,48.601,84.21,110.988,110.143,169.19H399.751
			V82.168z M490.509,100.449c101.797,37.689,161.066,87.628,199.01,149.943H588.216
			C561.026,186.049,526.374,143.341,490.509,100.449z M399.751,282.704h156.295c16.42,40.214,24.791,81.937,26.131,123.293H399.751
			V290.218V282.704z M598.273,282.704h110.963c23.381,47.519,30.884,74.738,33.364,123.293H621.979
			c-0.967-36.41-7.383-77.043-23.705-115.779V282.704z M399.751,437.173h182.426c-1.362,40.172-9.711,97.197-26.131,138.558H399.751
			V437.173z M621.979,437.173H742.6c-2.48,47.413-9.983,89.921-33.364,138.558H598.273
			C614.524,536.992,620.986,474.728,621.979,437.173z M588.216,605.814v1.585H689.52c-37.945,63.845-97.213,110.604-199.01,146.722
			C526.374,709.691,561.026,670.16,588.216,605.814z M399.751,607.399h144.233c-25.933,59.793-65.315,122.349-110.143,169.407
			h-34.09V607.399z"/>
	</g>
	<g display="none">
		<path display="inline" d="M291.866,812.446l-0.062-50.197c-110.719-7.651-218.342-75.366-220.532-196.99l-0.325-18.327h138.491
			v18.01c0,19.928,40.506,43.285,81.944,49.793V493.041C156.929,460.556,77.174,385.207,77.174,289.676
			c0-52.791,19.286-98.961,57.312-137.224C168,118.743,235.733,98.077,290.899,91.464V40.677l36.021-0.026l0.484,341.812
			l-0.053-0.009l0.536,429.974L291.866,812.446z M108.675,582.953c11.819,87.256,95.901,136.327,183.086,143.187l-0.097-75.032
			c-46.873-6.015-101.291-31.026-114.993-68.155H108.675z M291.005,127.766c-48.342,6.464-105.636,24.606-130.972,50.083
			c-31.518,31.712-46.838,68.287-46.838,111.827c0,103.78,111.554,148.666,178.223,166.201l-0.097-77.143
			c-57.901-11.133-83.36-54.322-82.613-95.118c0.756-41.64,29.162-84.917,82.375-94.669L291.005,127.766z M291.128,225.874
			c-31.175,8.574-45.976,34.552-46.407,58.393c-0.396,21.906,11.995,47.963,46.556,57.461L291.128,225.874z"/>
	</g>
	<g display="none">
		<path display="inline" d="M435.896,812.39l-4.889-0.064l-4.09,0.064c-38.175,0-73.497-10.856-107.997-33.19l-7.469-4.833V672.928
			h239.911v101.439l-7.469,4.833C509.402,801.534,474.079,812.39,435.896,812.39z M431.008,779.623l4.889,0.048
			c28.964,0,56.116-7.644,82.747-23.317v-50.708H344.171v50.708c26.64,15.672,53.791,23.317,82.747,23.317L431.008,779.623z
			 M547.033,661.473H315.781v-16.359c0-72.699-37.543-121.01-77.292-172.165c-42.959-55.277-87.372-112.439-80.343-200.514
			C166.997,161.762,243.434,43.5,431.407,43.5c188.021,0,264.442,118.262,273.268,228.935
			c7.029,88.075-37.392,145.237-80.343,200.514c-39.756,51.155-77.3,99.466-77.3,172.165V661.473z M347.949,628.755h166.917
			c5.128-74.871,44.996-126.17,83.634-175.887c40.922-52.665,79.576-102.414,73.553-177.828
			c-3.714-46.642-32.056-198.821-240.646-198.821c-208.534,0-236.915,152.179-240.646,198.821
			c-6.015,75.422,32.639,125.164,73.561,177.828C302.953,502.593,342.821,553.883,347.949,628.755z"/>
	</g>
	<g display="none">
		<path display="inline" fill="#636466" d="M495.387,533.913H250.12v34.939h245.267V533.913z M635.217,358.584H442.397v35.494
			h192.821V358.584z M442.397,305.599h192.821V201.268H442.397V305.599z M389.952,201.268H250.12v192.81h139.832V201.268z
			 M355.009,445.971H250.12v35.499h104.889V445.971z M389.952,481.471h245.265v-35.499H389.952V481.471z M635.217,621.304H250.12
			v34.944h385.097V621.304z M530.33,568.852h104.887v-34.939H530.33V568.852z"/>
	</g>
	<g display="none">
		<path display="inline" d="M757.699,813H92.691V43h665.007V813z M127.692,778h595.007V78H127.692V778z"/>
	</g>
	<g display="none">
		<path display="inline" d="M712.808,809.062c-16.167,0-31.37-6.299-42.798-17.736L502.217,623.534
			c-43.587,23.056-92.358,35.193-141.862,35.193c-166.486,0-312.521-146.043-312.521-312.537
			C47.834,178.731,184.057,42.5,351.507,42.5c166.502,0,312.561,146.043,312.561,312.529c0,51.423-12.973,101.803-37.622,146.513
			l166.677,166.669c25.994,26.002,28.447,57.149,6.252,79.353l-43.778,43.762C744.178,802.762,728.982,809.062,712.808,809.062z
			 M507.68,582.87l185.393,185.393c10.568,10.568,28.933,10.552,39.453,0.008l43.786-43.77c11.142-11.149,2.748-24.218-6.252-33.226
			L585.456,506.679l6.658-10.95c25.732-42.281,39.334-90.932,39.334-140.699c0-149.109-130.816-279.909-279.941-279.909
			c-149.459,0-271.053,121.601-271.053,271.069c0,149.117,130.792,279.917,279.901,279.917c47.959,0,95.145-12.758,136.462-36.889
			L507.68,582.87z M360.355,570.295c-119.38,0-224.097-104.726-224.097-224.105c0-118.703,96.563-215.273,215.25-215.273
			c119.395,0,224.129,104.726,224.129,224.113C575.637,473.724,479.058,570.295,360.355,570.295z M351.507,163.536
			c-100.704,0-182.629,81.941-182.629,182.653c0,100.218,91.267,191.485,191.477,191.485c100.72,0,182.661-81.933,182.661-182.645
			C543.016,254.811,451.734,163.536,351.507,163.536z"/>
	</g>
	<path display="none" d="M140.324,560.714c-0.089-0.578-0.263-1.207-0.469-1.769l-8.987-24.005L88.345,420.989
		c-0.422-1.098-0.952-2.11-1.593-2.987c-3.397-4.8-9.721-6.908-15.458-4.771c-1.053,0.384-2.077,0.935-2.985,1.581
		c-4.831,3.352-6.968,9.689-4.787,15.449l39.976,107.067c-4.657,0.011-9.368,0.861-13.965,2.543
		c-3.308,1.247-6.368,2.857-9.105,4.802c-14.755,10.321-21.255,29.671-14.666,47.317c1.229,3.254,2.826,6.279,4.771,9.009
		c1.274,1.887,2.898,3.417,4.45,5.006l-0.292,0.154l2.253,2.003l0,0l0,0l1.144,1.019l0.116-0.06
		c10.756,8.755,25.703,11.8,39.653,6.609c3.203-1.227,6.19-2.801,8.884-4.718c0.06-0.016,0.118-0.073,0.176-0.103
		c14.74-10.319,21.195-29.64,14.666-47.264C141.23,562.639,140.82,561.682,140.324,560.714z M785.305,545.038
		c-0.95-1.61-2.195-3.138-3.749-4.421c-0.615-0.571-1.271-0.995-1.872-1.39c-0.071-0.218-0.672-0.79-1.272-1.325l-137.9-118.744
		c-0.672-0.573-1.347-1.04-1.961-1.434c-0.058-0.221-0.614-0.774-1.229-1.298c-5.884-5.086-14.11-5.585-20.463-1.894
		c-1.639,0.964-3.161,2.239-4.481,3.749L508.191,539.287c-0.352-0.671-0.732-1.361-1.113-2.05
		c-3.014-5.173-6.879-9.908-11.681-13.955c-18.413-15.846-44.292-17.514-64.185-5.848c-5.137,3-9.91,6.879-14.008,11.722
		c-3.981,4.64-6.85,9.743-9.06,15.123l-0.19-0.134l-0.894,2.46l-0.014,0.036l-0.643,1.822l0.087,0.031
		c-4.742,14.902-3.045,31.279,4.919,44.908c2.987,5.124,6.908,9.828,11.606,13.937c18.487,15.919,44.339,17.436,64.245,5.793
		c1.858-1.095,3.6-2.378,5.327-3.667l0.087,0.112l1.287-1.057c0.06-0.029,0.12-0.029,0.147-0.087l2.197-1.8l-0.207-0.161
		c1.787-1.535,3.558-3.103,5.182-4.976c1.026-1.243,2.007-2.474,2.927-3.749c0.279-0.16,0.982-0.789,1.64-1.515l119.967-139.412
		l117.479,101.174l-90.838,105.521c-0.352-0.711-0.718-1.401-1.126-2.083c-3.002-5.151-6.866-9.87-11.666-13.945
		c-18.416-15.882-44.339-17.496-64.214-5.842c-5.139,3.002-9.911,6.91-13.995,11.728c-0.395,0.442-0.687,0.875-1.039,1.343
		l-0.029-0.056l-1.26,1.688l-1.492,1.94l0.176,0.103c-12.266,17.945-12.794,41.036-2.139,59.181
		c0.016,0.063,0.031,0.085,0.089,0.127c2.956,5.097,6.835,9.765,11.519,13.834c18.474,15.928,44.366,17.506,64.272,5.871
		c5.153-3.045,9.897-6.955,13.981-11.646c1.039-1.22,2.003-2.538,2.971-3.797c0.234-0.132,0.935-0.761,1.61-1.566l33.432-38.816l0,0
		l99.885-116.003C788.495,559.661,789.024,551.385,785.305,545.038z M335.235,540.427c-1.523-0.393-3.101-0.615-4.655-0.615
		c-8.195,0-15.663,5.456-17.784,13.774l-39.947,153.69c-5.326-3.714-11.356-6.495-17.958-8.237
		c-4.729-1.247-9.515-1.845-14.155-1.814c-25.045-0.031-47.863,16.758-54.421,42.109c-1.231,4.72-1.845,9.406-1.816,14.088
		c-0.029,3.125,0.321,6.187,0.848,9.201l-0.234-0.044l0.966,4.042c0,0.027,0,0.054,0.014,0.085l0.513,2.041h0.147
		c5.253,18.59,19.818,33.982,39.844,39.164c4.639,1.198,9.279,1.785,13.861,1.785h0.277c25.014,0.029,47.776-16.805,54.423-42.084
		c0.379-1.434,0.703-2.853,0.935-4.32c0.323-0.772,0.585-1.564,0.834-2.378l8.944-34.489l0.016-0.031l42.521-163.529
		c0.411-1.611,0.614-3.145,0.585-4.655C348.994,549.972,343.491,542.566,335.235,540.427z M452.684,274.474
		c-30.269,10.365-49.327,38.694-49.298,68.965c-0.029,7.858,1.229,15.852,3.953,23.668c0.263,0.749,0.556,1.392,0.818,2.043
		l-0.058,0.051l0.968,2.26c0.029,0.091,0.073,0.23,0.116,0.286l1.202,2.987l0.263-0.149c12.208,25.855,38.029,41.805,65.706,41.783
		h0.045c0,0,0.087,0,0.174,0c7.76,0,15.605-1.311,23.347-3.884c30.315-10.379,49.373-38.689,49.327-69.045
		c0.045-7.849-1.258-15.837-3.892-23.61c-0.674-1.985-1.479-3.966-2.3-5.887c0-0.332-0.232-1.552-0.701-2.822l-21.81-63.79v0.042
		L455.32,56.914c-3.308-9.694-12.382-15.759-22.029-15.759c-2.46,0-5.05,0.366-7.537,1.243c-1.011,0.361-1.963,0.81-2.799,1.222
		c-0.306-0.036-1.329,0.221-2.355,0.593l-226.413,77.505c-1.111,0.375-2.077,0.805-2.955,1.243c-0.25-0.056-1.245,0.199-2.286,0.52
		c-9.66,3.324-15.719,12.31-15.719,21.993c0,2.454,0.411,5.045,1.287,7.575l67.977,198.614c-1.026-0.078-2.034-0.078-3.045-0.078
		c-7.845,0-15.808,1.229-23.595,3.988c-30.24,10.348-49.329,38.6-49.329,68.927c0,7.851,1.26,15.81,3.984,23.651
		c2.588,7.624,6.409,14.376,10.977,20.408l-0.118,0.087l1.932,2.329c0.102,0.1,0.176,0.248,0.292,0.363l1.64,1.949l0.132-0.073
		c13.743,15.268,33.445,24.253,54.187,24.28c7.802,0,15.734-1.329,23.55-3.906c30.329-10.421,49.271-38.731,49.271-69.04
		c0-2.831-0.292-5.67-0.614-8.465l0.19-0.087l-0.352-2.153c-0.015-0.085,0-0.116-0.015-0.203l-0.556-3.672l-0.161,0.042
		c-0.6-3.002-1.332-6.043-2.371-9.072c-0.687-2.025-1.494-3.97-2.298-5.844c0-0.464-0.265-1.653-0.658-2.869l-78.369-228.811
		l192.906-66.04l59.253,173.201c-0.995-0.031-2.021-0.076-3.076-0.076C468.434,270.499,460.473,271.746,452.684,274.474z"/>
	<path display="none" d="M540.339,450.825c12.955-13.31,12.949-34.896,0-48.201L340.388,197.146l-0.008,0.01
		c-9.183-9.366-24.006-9.345-33.16,0.06c-9.177,9.436-9.177,24.722,0,34.159c0.478,0.489,1.03,0.847,1.534,1.283l170.083,174.778
		c10.362,10.652,10.364,27.914,0,38.571L309.502,620.019l0.073,0.073c-0.037,0.044-0.078,0.06-0.115,0.099
		c-9.12,9.376-9.12,24.571,0.003,33.942c9.12,9.379,23.91,9.379,33.032,0c0.034-0.037,0.057-0.078,0.094-0.118l0.01,0.013
		L540.339,450.825z"/>
	<g display="none">
		<g display="inline">
			<path d="M784.181,305.406H66.217c-14.35,0-23.419-10.286-25.423-20.801l-7.147-24.535c-1.629-5.949-6.342-23.144,13.791-34.044
				L410.003,45.182c4.594-1.592,8.804-2.508,13.242-2.883c6.937-0.586,14.038,0.705,20.353,4.338l358.822,179.104
				c20.673,11.174,15.96,28.379,14.414,34.034l-6.9,25.011C807.7,295.275,798.439,305.406,784.181,305.406z M74.993,267.921h700.768
				l3.258-11.943L425.99,79.702c-0.879,0.101-1.684,0.265-2.709,0.567L71.516,255.887L74.993,267.921z M425.679,259.694
				c-45.456-1.126-80.314-36.048-80.314-79.499c0-43.406,34.849-78.328,79.344-79.499l0.494-0.018l0.494,0.018
				c44.476,1.171,79.316,36.094,79.316,79.499C505.014,223.646,470.165,258.568,425.679,259.694z M425.203,138.18
				c-23.794,0.869-42.353,19.236-42.353,42.015c0,22.961,18.816,41.42,42.829,42.033c23.053-0.613,41.85-19.072,41.85-42.033
				C467.529,157.416,448.979,139.058,425.203,138.18z"/>
		</g>
		<g display="inline">
			<path d="M759.526,809.151H90.853c-17.251,0-31.289-13.261-31.289-29.559v-72.453c0-16.271,14.038-29.514,31.289-29.514h668.674
				c17.251,0,31.289,13.242,31.289,29.514v72.453C790.815,795.89,776.777,809.151,759.526,809.151z M97.048,771.666h656.282V715.11
				H97.048V771.666z"/>
		</g>
		<g display="inline">
			<path d="M265.811,640.625H116.029V340.923h149.783V640.625z M153.513,603.141h74.814V378.407h-74.814V603.141z"/>
		</g>
		<g display="inline">
			<path d="M490.719,640.625H340.936V340.923h149.783V640.625z M378.421,603.141h74.814V378.407h-74.814V603.141z"/>
		</g>
		<g display="inline">
			<path d="M734.369,640.625H584.586V340.923h149.783V640.625z M622.071,603.141h74.814V378.407h-74.814V603.141z"/>
		</g>
	</g>
	<path d="M450.363,310.513c-13.31-12.955-34.896-12.949-48.201,0L196.684,510.465l0.01,0.008c-9.366,9.183-9.345,24.006,0.06,33.16
		c9.436,9.177,24.722,9.177,34.159,0c0.489-0.478,0.847-1.03,1.283-1.534l174.778-170.083c10.652-10.362,27.914-10.364,38.571,0
		l174.011,169.335l0.073-0.073c0.044,0.037,0.06,0.078,0.099,0.115c9.376,9.12,24.571,9.12,33.942-0.003
		c9.379-9.12,9.379-23.91,0-33.032c-0.037-0.034-0.078-0.057-0.118-0.094l0.013-0.01L450.363,310.513z"/>
</g>
<g id="Layer_2" display="none">
	<path d="M731.829,53.369h-6.337v191.749c0,10.434-10.746,19.005-23.417,19.005c-12.672,0-23.418-8.571-23.418-19.005V53.369
		h-37.954v191.749c0,10.434-10.124,19.005-22.792,19.005c-13.294,0-23.418-8.571-23.418-19.005V53.369h-6.337
		c-16.459,0-29.752,13.293-29.752,29.725V290.37c0,16.459,13.293,29.752,29.752,29.752h39.879v76.899
		c-11.371,9.477-18.326,23.106-18.326,38.608v321.506c0,27.828,22.113,50.626,50,50.626c27.832,0,50.626-22.798,50.626-50.626
		V435.629c0-15.502-6.959-29.131-18.385-38.608v-76.899h39.879c16.457,0,29.752-13.293,29.752-29.752V83.094
		C761.581,66.662,748.286,53.369,731.829,53.369z"/>
	<path d="M181.857,43.554c-51.244,0-93.048,62.023-93.048,138.271c0,59.817,25.342,110.441,61.431,129.759v85.438
		c-11.425,9.477-18.383,23.106-18.383,38.608v321.506c0,27.828,22.174,50.626,50,50.626c27.832,0,50.628-22.798,50.628-50.626
		V435.629c0-15.502-7.584-29.131-18.326-38.608v-85.438c35.406-19.317,60.748-69.941,60.748-129.759
		C274.906,105.576,233.726,43.554,181.857,43.554z"/>
	<path d="M472.371,397.021v-83.546v-35.434V50.511c-8.881-4.438-18.383-6.957-28.509-6.957c-51.246,0-93.048,62.023-93.048,138.271
		c0,57.92,24.096,107.271,57.638,127.837v87.36c-10.803,9.477-18.383,23.106-18.383,38.608v321.506
		c0,27.828,22.796,50.626,50.624,50.626c27.886,0,50.626-22.798,50.626-50.626V435.629
		C491.319,420.127,483.737,406.498,472.371,397.021z"/>
	<path d="M41.442,333.737C40.514,495.145,170.007,624.597,331.41,623.69c161.398-0.933,292.05-131.59,292.973-292.983
		c0.923-161.408-128.57-290.921-289.973-289.968C173.007,41.636,42.365,172.299,41.442,333.737z M162.131,332.204
		c0-96.851,76.89-174.779,172.783-174.779c95.888,0,173.277,77.928,173.277,174.779s-77.389,174.769-173.277,174.769
		C239.021,506.974,162.131,429.055,162.131,332.204z M484.655,612.169L659.44,786.943c73.885,74.107,206.13-47.697,126.704-126.679
		L610.861,486.468C580.009,538.37,536.895,581.826,484.655,612.169z"/>
	<g>
		<path display="inline" d="M666.788,809.915H183.602c-134.957,0-170.621-127.75-170.621-195.3v-19.629h824.426v19.629
			C837.408,682.165,801.745,809.915,666.788,809.915z M53.61,634.243c4.898,42.094,27.344,136.414,129.992,136.414h483.185
			c103.108,0,125.296-94.348,130.06-136.414H53.61z"/>
	</g>
	<g>
		<path display="inline" d="M474.411,614.288h-39.257v-157.94L14.851,457.46L425.195,52.454v-6.565h49.216V614.288z M435.153,97.788
			L110.771,417.953l324.382-0.863V97.788z"/>
	</g>
	<path d="M276.127,648.789L37.631,738.222V201.659l238.496-89.491V648.789z"/>
	<path d="M812.759,648.789l-238.498,89.433V201.659l238.498-89.491V648.789z"/>
	<path d="M305.937,648.789l238.51,89.433V201.659l-238.51-89.491V648.789z"/>
</g>
</svg>
